<svg width="297" height="297" viewBox="0 0 297 297" fill="none" xmlns="http://www.w3.org/2000/svg">
<path fill-rule="evenodd" clip-rule="evenodd" d="M148.5 297C230.514 297 297 230.514 297 148.5C297 66.4857 230.514 0 148.5 0C66.4857 0 0 66.4857 0 148.5C0 230.514 66.4857 297 148.5 297ZM119.903 119.895C127.307 112.491 137.35 108.331 147.821 108.331C158.292 108.331 168.335 112.491 175.739 119.895C183.143 127.299 187.303 137.342 187.303 147.813C187.303 158.284 183.143 168.326 175.739 175.731C168.335 183.135 158.292 187.295 147.821 187.295C137.35 187.295 127.307 183.135 119.903 175.731C112.499 168.326 108.339 158.284 108.339 147.813C108.339 137.342 112.499 127.299 119.903 119.895ZM129.684 165.941C134.494 170.752 141.018 173.454 147.821 173.454C154.624 173.454 161.148 170.752 165.958 165.941C170.768 161.131 173.47 154.607 173.47 147.804C173.47 141.002 170.768 134.478 165.958 129.667C161.148 124.857 154.624 122.155 147.821 122.155C141.018 122.155 134.494 124.857 129.684 129.667C124.874 134.478 122.171 141.002 122.171 147.804C122.171 154.607 124.874 161.131 129.684 165.941ZM188.866 116.084C193.949 116.084 198.07 111.963 198.07 106.879C198.07 101.796 193.949 97.6746 188.866 97.6746C183.782 97.6746 179.661 101.796 179.661 106.879C179.661 111.963 183.782 116.084 188.866 116.084ZM211.819 83.9107C215.691 87.7805 218.711 92.416 220.688 97.5205C222.967 103.576 224.183 109.98 224.283 116.45C224.761 124.622 224.761 127.269 224.761 148.128C224.761 168.988 224.65 171.592 224.283 179.806C224.155 186.193 222.951 192.494 220.705 198.471C218.726 203.575 215.704 208.21 211.833 212.081C207.963 215.952 203.327 218.973 198.223 220.953C192.248 223.191 185.937 224.401 179.558 224.53C171.404 225 168.731 225 147.88 225C127.029 225 124.425 224.889 116.203 224.53C109.811 224.32 103.501 223.021 97.5461 220.688C92.4407 218.712 87.8035 215.693 83.931 211.823C80.0584 207.954 77.0357 203.319 75.0558 198.215C72.8102 192.229 71.6062 185.928 71.4782 179.541C71 171.37 71 168.714 71 147.863C71 127.004 71.111 124.4 71.4782 116.186C71.6029 109.806 72.8128 103.494 75.0558 97.5205C77.0301 92.4147 80.05 87.778 83.9216 83.9079C87.7932 80.0377 92.431 77.0196 97.5376 75.0472C103.504 72.7982 109.811 71.5854 116.186 71.4611C124.34 71 127.012 71 147.863 71C168.714 71 171.319 71.1025 179.541 71.4611C185.921 71.5921 192.232 72.8047 198.206 75.0472C203.311 77.0219 207.948 80.0408 211.819 83.9107ZM207.633 193.322C209.335 188.705 210.233 183.83 210.288 178.909V178.918H210.382C210.749 170.755 210.749 168.518 210.749 147.721V147.718C210.749 126.91 210.655 124.63 210.288 116.51C210.209 111.645 209.311 106.827 207.633 102.259C206.35 98.9385 204.386 95.9226 201.869 93.4052C199.352 90.8878 196.336 88.9246 193.015 87.6415C188.45 85.9429 183.626 85.0446 178.756 84.986C170.499 84.5164 168.364 84.5164 147.556 84.5164C126.748 84.5164 124.468 84.6189 116.348 84.986C111.481 85.054 106.662 85.9521 102.097 87.6415C95.3603 90.2201 90.0237 95.5225 87.4195 102.259C85.7174 106.874 84.8192 111.746 84.764 116.664C84.3115 124.938 84.3115 127.064 84.3115 147.872C84.3115 168.672 84.3969 170.96 84.764 179.072C84.8435 183.937 85.7412 188.755 87.4195 193.322C88.7074 196.649 90.6793 199.668 93.2076 202.185C95.736 204.701 98.7645 206.659 102.097 207.932C106.659 209.629 111.48 210.527 116.348 210.587C124.613 211.057 126.739 211.057 147.556 211.057C168.356 211.057 170.644 210.963 178.756 210.587C183.626 210.524 188.449 209.626 193.015 207.932C196.336 206.651 199.352 204.69 201.87 202.174C204.387 199.658 206.35 196.643 207.633 193.322Z" fill="white"/>
</svg>
