<svg width="297" height="297" viewBox="0 0 297 297" fill="none" xmlns="http://www.w3.org/2000/svg">
<path d="M148.5 0C66.4847 0 0 66.4847 0 148.5C0 230.515 66.4847 297 148.5 297C230.515 297 297 230.515 297 148.5C297 66.4847 230.515 0 148.5 0ZM112.148 210.05H82.0772V113.278H112.148V210.05ZM96.9272 101.398C87.4294 101.398 81.2883 94.6687 81.2883 86.3466C81.2883 77.8542 87.615 71.3264 97.3139 71.3264C107.013 71.3264 112.953 77.8542 113.138 86.3466C113.138 94.6687 107.013 101.398 96.9272 101.398ZM221.977 210.05H191.905V156.42C191.905 143.937 187.543 135.46 176.669 135.46C168.362 135.46 163.427 141.199 161.246 146.721C160.442 148.686 160.241 151.47 160.241 154.239V210.035H130.154V144.138C130.154 132.057 129.767 121.956 129.365 113.262H155.492L156.869 126.705H157.472C161.432 120.393 171.131 111.081 187.357 111.081C207.142 111.081 221.977 124.338 221.977 152.831V210.05V210.05Z" fill="white"/>
</svg>
