<svg width="512" height="512" viewBox="0 0 512 512" fill="none" xmlns="http://www.w3.org/2000/svg">
<g clip-path="url(#clip0)">
<path d="M464 256H48C35.2696 256 23.0606 261.057 14.0589 270.059C5.05713 279.061 0 291.27 0 304C0 316.73 5.05713 328.939 14.0589 337.941C23.0606 346.943 35.2696 352 48 352H464C476.73 352 488.939 346.943 497.941 337.941C506.943 328.939 512 316.73 512 304C512 291.27 506.943 279.061 497.941 270.059C488.939 261.057 476.73 256 464 256V256ZM480 384H32C27.7565 384 23.6869 385.686 20.6863 388.686C17.6857 391.687 16 395.757 16 400V416C16 432.974 22.7428 449.252 34.7452 461.255C46.7475 473.257 63.0261 480 80 480H432C448.974 480 465.252 473.257 477.255 461.255C489.257 449.252 496 432.974 496 416V400C496 395.757 494.314 391.687 491.314 388.686C488.313 385.686 484.243 384 480 384ZM58.64 224H453.36C487.93 224 507.98 180.1 488.18 148.12C448 83.2 359.55 32.1 256 32C152.46 32.1 64 83.2 23.82 148.11C4 180.09 24.07 224 58.64 224ZM384 112C387.165 112 390.258 112.938 392.889 114.696C395.52 116.455 397.571 118.953 398.782 121.877C399.993 124.801 400.31 128.018 399.693 131.121C399.075 134.225 397.551 137.076 395.314 139.314C393.076 141.551 390.225 143.075 387.121 143.693C384.018 144.31 380.801 143.993 377.877 142.782C374.953 141.571 372.455 139.52 370.696 136.889C368.938 134.258 368 131.165 368 128C368 123.757 369.686 119.687 372.686 116.686C375.687 113.686 379.757 112 384 112V112ZM256 80C259.165 80 262.258 80.9384 264.889 82.6965C267.52 84.4546 269.571 86.9534 270.782 89.8771C271.993 92.8007 272.31 96.0177 271.693 99.1214C271.075 102.225 269.551 105.076 267.314 107.314C265.076 109.551 262.225 111.075 259.121 111.693C256.018 112.31 252.801 111.993 249.877 110.782C246.953 109.571 244.455 107.52 242.696 104.889C240.938 102.258 240 99.1645 240 96C240 91.7565 241.686 87.6869 244.686 84.6863C247.687 81.6857 251.757 80 256 80V80ZM128 112C131.165 112 134.258 112.938 136.889 114.696C139.52 116.455 141.571 118.953 142.782 121.877C143.993 124.801 144.31 128.018 143.693 131.121C143.075 134.225 141.551 137.076 139.314 139.314C137.076 141.551 134.225 143.075 131.121 143.693C128.018 144.31 124.801 143.993 121.877 142.782C118.953 141.571 116.455 139.52 114.696 136.889C112.938 134.258 112 131.165 112 128C112 123.757 113.686 119.687 116.686 116.686C119.687 113.686 123.757 112 128 112V112Z" fill="white"/>
</g>
<defs>
<clipPath id="clip0">
<rect width="512" height="512" fill="white"/>
</clipPath>
</defs>
</svg>
